<?xml version="1.0" encoding="utf-8"?>
<!-- Generator: Adobe Illustrator 25.2.1, SVG Export Plug-In . SVG Version: 6.00 Build 0)  -->
<svg version="1.1" id="Layer_1" xmlns="http://www.w3.org/2000/svg" xmlns:xlink="http://www.w3.org/1999/xlink" x="0px" y="0px"
	 viewBox="0 0 453 453" style="enable-background:new 0 0 453 453;" xml:space="preserve">
<style type="text/css">
	.st0{fill:#E4DDD3;}
	.st1{fill:#1A1917;}
</style>
<rect x="71" y="71.9" class="st0" width="311" height="311"/>
<path class="st1" d="M367.4,56.3H85.6c-16.2,0-29.3,13.1-29.3,29.3v281.8c0,16.2,13.1,29.3,29.3,29.3h281.8
	c16.2,0,29.3-13.1,29.3-29.3V85.6C396.7,69.4,383.6,56.3,367.4,56.3z M373.1,343.9c0,16.2-13.1,29.3-29.3,29.3H109.1
	c-16.2,0-29.3-13.1-29.3-29.3V109.1c0-16.2,13.1-29.3,29.3-29.3h234.7c16.2,0,29.3,13.1,29.3,29.3V343.9z"/>
<path class="st1" d="M234.8,318.1l78-135.1c3.7-6.4-0.9-14.5-8.3-14.5h-156c-7.4,0-12.1,8-8.3,14.5l78,135.1
	C221.9,324.5,231.1,324.5,234.8,318.1z"/>
</svg>
