<?xml version="1.0" encoding="utf-8"?>
<!-- Generator: Adobe Illustrator 25.2.1, SVG Export Plug-In . SVG Version: 6.00 Build 0)  -->
<svg version="1.1" id="Layer_1" xmlns="http://www.w3.org/2000/svg" xmlns:xlink="http://www.w3.org/1999/xlink" x="0px" y="0px"
	 viewBox="0 0 297 247.9" style="enable-background:new 0 0 297 247.9;" xml:space="preserve">
<style type="text/css">
	.st0{fill:#E4DDD3;}
</style>
<g>
	<g>
		<g>
			<path class="st0" d="M63.8,179.1c-4.8,0-8.7-4.8-8.7-10.5V21.3c-3.5-0.2-6.7-0.3-9.7-0.3c-2.8,0-5.5,1.1-7.5,3.1
				s-3.1,4.7-3.1,7.5V191c0,5.8,4.8,10.6,10.6,10.6c24.7,0.1,66.2,5.2,94.8,35.1V212C116.8,184,83.7,179.2,63.8,179.1z"/>
			<path class="st0" d="M259.1,24.2c-2-2-4.6-3.1-7.4-3.1c-3,0-6.3,0.1-9.8,0.3v147.1c0,5.8-3.9,10.6-8.7,10.7c-20,0-53,5-76.4,33
				v24.7c28.6-29.9,70-35.1,94.8-35.1c5.8-0.1,10.6-4.9,10.6-10.8V31.7C262.2,28.8,261.1,26.2,259.1,24.2z"/>
			<path class="st0" d="M286.4,57.8h-7.7V191c0,14.9-12.2,27.1-27.1,27.1c-21,0.1-55.6,4.2-80.1,27.3c42.4-10.4,87.1-3.6,112.5,2.2
				c3.2,0.7,6.5,0,9-2.1c2.5-2,4-5.1,4-8.3V68.4C297,62.6,292.2,57.8,286.4,57.8z"/>
			<path class="st0" d="M18.3,191V57.8h-7.7C4.8,57.8,0,62.6,0,68.4v168.9c0,3.2,1.5,6.3,4,8.3s5.8,2.8,9,2.1
				c25.5-5.8,70.1-12.5,112.5-2.2c-24.5-23.2-59.1-27.3-80.1-27.3C30.5,218.1,18.3,206,18.3,191z"/>
			<path class="st0" d="M78.1,0L78.1,0c-1.8,0-3.6,1-4.9,2.8c-1.3,1.8-2,4.3-2,6.8v145.4c0,5.3,3.1,9.7,6.9,9.7
				c16.2,0.1,43.4,4.7,62.1,32V44.7c0-1.8-0.3-3.5-1-4.9C123.9,5.3,94.3,0.1,78.1,0z"/>
			<path class="st0" d="M225.9,155.1V9.8c0-2.6-0.7-5-2-6.8c-1.3-1.8-3-2.8-4.8-2.8l0,0c-16.2,0.1-45.8,5.3-61.2,39.8
				c-0.7,1.4-1,3.1-1,4.9V197c18.7-27.3,45.9-32,62.1-32C222.7,164.9,225.9,160.5,225.9,155.1z"/>
		</g>
	</g>
</g>
</svg>
