<svg id="Layer_1" data-name="Layer 1" xmlns="http://www.w3.org/2000/svg" viewBox="0 0 387 260"><path d="M119.19,73.37,73,96.08a17.92,17.92,0,0,0-10,16.08v8.74a22.34,22.34,0,0,1-10.66,19L28.86,156.5A29,29,0,0,0,15,181.26v80.66a21.74,21.74,0,0,0,14.6,20.53L122,322V75.11A1.94,1.94,0,0,0,119.19,73.37Z" transform="translate(-10 -67)" fill="none"/><path d="M127,327a59.77,59.77,0,0,1-7-.4L27.79,287.11A26.75,26.75,0,0,1,10,261.92V181.26a34.28,34.28,0,0,1,16.11-28.94l23.35-16.46.27-.17A17.48,17.48,0,0,0,58,120.9v-8.74A22.78,22.78,0,0,1,70.81,91.59L117,68.89a6.88,6.88,0,0,1,6.72.33c2.05,1.28,3.28,3.48-3.72,5.89V322c7,1.68,6.15,3.25,4.75,4.18C123.91,326.72,128,327,127,327ZM55.1,144.12,31.74,160.58l-.26.18A24.2,24.2,0,0,0,20,181.26v80.66a16.73,16.73,0,0,0,11.24,15.8l.33.13L117,314.42V80L75.22,100.56A12.85,12.85,0,0,0,68,112.16v8.74A27.51,27.51,0,0,1,55.1,144.12Z" transform="translate(-10 -67)" fill="#1a1917"/><rect x="103" y="5" width="279" height="250" rx="13.33" fill="none"/><path d="M378.67,327H126.33c-10.11,0-18.33-8.22-16.33-18.33V85.33C108,75.22,116.22,67,126.33,67H378.67A18.35,18.35,0,0,1,397,85.33V308.67A18.35,18.35,0,0,1,378.67,327ZM126.33,77A8.34,8.34,0,0,0,118,85.33V308.67a8.34,8.34,0,0,0,8.33,8.33H378.67a8.34,8.34,0,0,0,8.33-8.33V85.33A8.34,8.34,0,0,0,378.67,77Z" transform="translate(-10 -67)" fill="#1a1917"/><path d="M301,188a25,25,0,1,0-24.78-28.26v6.52A25,25,0,0,0,301,188Z" transform="translate(-10 -67)" fill="#1a1917"/><path d="M345,286a7.28,7.28,0,0,0,7.27-7.27V115.24A7.28,7.28,0,0,0,345,108H160a7.28,7.28,0,0,0-7.28,7.27V278.76A7.28,7.28,0,0,0,160,286ZM263.78,130h12.44v8.31a35,35,0,1,1,0,49.38V248H263.78ZM206.91,270.41a4.06,4.06,0,0,1-6.34-3.41l.16-14.86a4.52,4.52,0,0,0-3.61-4.51A21,21,0,1,1,222,227C222,255.08,213.24,266.11,206.91,270.41ZM200.5,129.5a21,21,0,1,1-21,21A21,21,0,0,1,200.5,129.5Z" transform="translate(-10 -67)" fill="#1a1917"/></svg>