<?xml version="1.0" encoding="utf-8"?>
<!-- Generator: Adobe Illustrator 25.2.1, SVG Export Plug-In . SVG Version: 6.00 Build 0)  -->
<svg version="1.1" id="Capa_1" xmlns="http://www.w3.org/2000/svg" xmlns:xlink="http://www.w3.org/1999/xlink" x="0px" y="0px"
	 viewBox="0 0 53.6 53.6" style="enable-background:new 0 0 53.6 53.6;" xml:space="preserve">
<style type="text/css">
	.st0{fill:#E4DDD3;}
</style>
<path class="st0" d="M48.8,15.3C41.7,3.7,31,11.8,31,11.8c-0.7,0.5-2,1-2.8,1h-2.9c-0.9,0-2.1-0.4-2.8-1c0,0-10.7-8.1-17.8,3.5
	c-7,11.7-4.1,24.3-4.1,24.3c0.5,3.1,2.1,5.2,5.3,4.9c3.1-0.3,9.8-8.4,9.8-8.4c0.6-0.7,1.7-1.2,2.6-1.2h17.1c0.9,0,2,0.5,2.6,1.2
	c0,0,6.7,8.1,9.8,8.4c3.1,0.3,4.8-1.8,5.3-4.9C53.1,39.6,55.9,27,48.8,15.3z M20.2,24.9h-2.4c-0.5,0-0.9,0.4-0.9,0.9V28
	c0,0.5-0.4,0.9-0.9,0.9h-2.3c-0.5,0-0.9-0.4-0.9-0.9v-2.2c0-0.5-0.4-0.9-0.9-0.9H9.9c-0.5,0-0.9-0.4-0.9-0.9v-1c0-0.1,0-0.2,0-0.3
	v-0.9C9,21.3,9.4,21,9.9,21h2.2c0.5,0,0.9-0.4,0.9-0.9v-2.2c0-0.5,0.4-0.9,0.9-0.9h2.3c0.5,0,0.9,0.4,0.9,0.9v2.2
	c0,0.5,0.4,0.9,0.9,0.9h2.4c0.5,0,0.9,0.4,0.9,0.9v2.3C21.1,24.6,20.7,24.9,20.2,24.9z M37.2,28.8c-1.6,0-2.9-1.3-2.9-2.9
	c0-1.6,1.3-2.9,2.9-2.9c1.6,0,2.9,1.3,2.9,2.9C40.1,27.5,38.8,28.8,37.2,28.8z M37.2,20.8c-1.6,0-2.9-1.3-2.9-2.9
	c0-1.6,1.3-2.9,2.9-2.9c1.6,0,2.9,1.3,2.9,2.9C40.1,19.5,38.8,20.8,37.2,20.8z M44.5,32.6c-1.6,0-2.9-1.3-2.9-2.9s1.3-2.9,2.9-2.9
	s2.9,1.3,2.9,2.9S46.1,32.6,44.5,32.6z M44.5,25.1c-1.6,0-2.9-1.3-2.9-2.9c0-1.6,1.3-2.9,2.9-2.9s2.9,1.3,2.9,2.9
	C47.4,23.8,46.1,25.1,44.5,25.1z"/>
</svg>
