<?xml version="1.0" encoding="utf-8"?>
<!-- Generator: Adobe Illustrator 25.2.1, SVG Export Plug-In . SVG Version: 6.00 Build 0)  -->
<svg version="1.1" id="Capa_1" xmlns="http://www.w3.org/2000/svg" xmlns:xlink="http://www.w3.org/1999/xlink" x="0px" y="0px"
	 viewBox="0 0 332.8 332.8" style="enable-background:new 0 0 332.8 332.8;" xml:space="preserve">
<style type="text/css">
	.st0{fill:#E4DDD3;}
</style>
<g>
	<g>
		<path class="st0" d="M14.2,194v103.7c0,19.1,15.5,34.6,34.6,34.6h248.9c19.1,0,34.6-15.5,34.6-34.6V194H14.2z"/>
	</g>
</g>
<g>
	<g>
		<polygon class="st0" points="164.5,32.1 112.7,44.4 155.1,105.2 211.1,92.5 		"/>
	</g>
</g>
<g>
	<g>
		<polygon class="st0" points="98.4,47.8 42.6,61 84.5,121.2 140.6,108.5 		"/>
	</g>
</g>
<g>
	<g>
		<path class="st0" d="M331.1,57.9l-10.8-41.6C317.6,5.4,306.5-1.5,295.5,1l-46.5,11l43.1,62l33.8-7.7c1.8-0.4,3.4-1.6,4.4-3.2
			C331.3,61.6,331.5,59.7,331.1,57.9z"/>
	</g>
</g>
<g>
	<g>
		<polygon class="st0" points="234.6,15.5 179.2,28.6 225.9,89.1 277.7,77.3 		"/>
	</g>
</g>
<g>
	<g>
		<polygon class="st0" points="83.9,127.5 61.8,180.2 116,180.2 138.2,127.5 		"/>
	</g>
</g>
<g>
	<g>
		<polygon class="st0" points="153.1,127.5 130.9,180.2 185.2,180.2 207.3,127.5 		"/>
	</g>
</g>
<g>
	<g>
		<path class="st0" d="M325.4,127.5h-34l-22.1,52.7h63.1v-45.8C332.3,130.5,329.2,127.5,325.4,127.5z"/>
	</g>
</g>
<g>
	<g>
		<polygon class="st0" points="222.2,127.5 200.1,180.2 254.3,180.2 276.5,127.5 		"/>
	</g>
</g>
<g>
	<g>
		<path class="st0" d="M28.2,64.5l-11.3,2.7c-5.5,1.2-10.1,4.6-13.1,9.4C0.9,81.3,0,86.9,1.4,92.4l12.8,50.7v37.1h32.7l20.8-51.9
			L28.2,64.5z"/>
	</g>
</g>
</svg>
