<?xml version="1.0" encoding="utf-8"?>
<!-- Generator: Adobe Illustrator 25.2.1, SVG Export Plug-In . SVG Version: 6.00 Build 0)  -->
<svg version="1.1" id="Capa_1" xmlns="http://www.w3.org/2000/svg" xmlns:xlink="http://www.w3.org/1999/xlink" x="0px" y="0px"
	 viewBox="0 0 411.6 428" style="enable-background:new 0 0 411.6 428;" xml:space="preserve">
<style type="text/css">
	.st0{fill:#E4DDD3;}
</style>
<path class="st0" d="M405.6,3.5c-3.7-3-8.7-4.1-13.5-3.1l-268,44c-7.3,1.6-12.5,8.1-12.5,15.6v253.1c-6.9-9-9.9-13.1-28-13.1
	c-44.1,0-80,28.7-80,64s35.9,64,80,64s80-28.7,80-64V168.8l196-36.9v137.2c-6.2-11-9.9-13.1-28-13.1c-44.1,0-80,28.7-80,64
	s35.9,64,80,64s80-28.7,80-64V16C411.6,11.1,409.4,6.5,405.6,3.5z"/>
</svg>
