<?xml version="1.0" encoding="utf-8"?>
<!-- Generator: Adobe Illustrator 25.2.1, SVG Export Plug-In . SVG Version: 6.00 Build 0)  -->
<svg version="1.1" id="Layer_1" xmlns="http://www.w3.org/2000/svg" xmlns:xlink="http://www.w3.org/1999/xlink" x="0px" y="0px"
	 viewBox="0 0 512 512" style="enable-background:new 0 0 512 512;" xml:space="preserve">
<style type="text/css">
	.st0{fill:#E4DDD3;}
</style>
<path class="st0" d="M351.3,256c0-52.6-42.8-95.3-95.3-95.3s-95.3,42.8-95.3,95.3c0,33.7,17.6,63.4,44.1,80.3
	c-26.5,17-44.1,46.6-44.1,80.3V497c0,8.3,6.7,15,15,15h160.7c8.3,0,15-6.7,15-15v-80.3c0-33.7-17.6-63.4-44.1-80.3
	C333.8,319.4,351.3,289.7,351.3,256z"/>
<path class="st0" d="M256,80.3c-96.9,0-175.7,78.8-175.7,175.7c0,48.8,20.3,94.7,54.8,127.5c2.7-9.7,6.5-19.1,11.4-27.9
	c0.4-0.7,0.8-1.4,1.2-2.1c-23.7-26.4-37.4-61-37.4-97.5c0-80.3,65.3-145.7,145.7-145.7S401.7,175.7,401.7,256
	c0,36.5-13.7,71.1-37.4,97.5c0.4,0.7,0.8,1.4,1.2,2.1c4.9,8.8,8.8,18.2,11.4,27.9c34.5-32.8,54.8-78.7,54.8-127.5
	C431.7,159.1,352.9,80.3,256,80.3z"/>
<path class="st0" d="M437,75C388.7,26.6,324.4,0,256,0S123.3,26.6,75,75S0,187.6,0,256c0,93.5,51.1,178.5,130.7,223.3v-35.2
	C68.9,402.8,30,332.6,30,256C30,131.4,131.4,30,256,30s226,101.4,226,226c0,76.6-38.9,146.8-100.7,188.1v35.2
	C460.9,434.5,512,349.5,512,256C512,187.6,485.4,123.3,437,75z"/>
</svg>
